<svg width="46" height="46" viewBox="0 0 46 46" fill="none" xmlns="http://www.w3.org/2000/svg">
    <path d="M36.0926 23.0199C36.3337 23.054 36.5657 23.1353 36.7754 23.2591C36.985 23.383 37.1682 23.5469 37.3144 23.7416C37.4606 23.9364 37.567 24.158 37.6274 24.3939C37.6879 24.6297 37.7012 24.8752 37.6667 25.1162C37.2025 28.3274 35.6975 31.2976 33.3826 33.5709C31.0677 35.8443 28.0709 37.2954 24.8518 37.7014V39.6681C24.8518 40.1592 24.6567 40.6303 24.3094 40.9776C23.9622 41.3248 23.4911 41.5199 23 41.5199C22.5089 41.5199 22.0378 41.3248 21.6905 40.9776C21.3432 40.6303 21.1481 40.1592 21.1481 39.6681V37.7014C17.9296 37.2947 14.9333 35.8434 12.6188 33.5701C10.3044 31.2968 8.79955 28.327 8.33518 25.1162C8.26543 24.63 8.3917 24.136 8.6862 23.7429C8.98071 23.3497 9.41932 23.0897 9.90555 23.0199C10.3918 22.9502 10.8858 23.0765 11.2789 23.371C11.6721 23.6655 11.9321 24.1041 12.0018 24.5903C12.3848 27.234 13.7073 29.6513 15.727 31.3995C17.7468 33.1477 20.3287 34.11 23 34.11C25.6713 34.11 28.2532 33.1477 30.2729 31.3995C32.2927 29.6513 33.6151 27.234 33.9981 24.5903C34.0326 24.3495 34.1142 24.1179 34.2383 23.9087C34.3623 23.6995 34.5263 23.5167 34.721 23.3709C34.9157 23.2251 35.1371 23.119 35.3728 23.0588C35.6085 22.9986 35.8518 22.9854 36.0926 23.0199ZM23 4.48291C25.4557 4.48291 27.8108 5.45844 29.5473 7.19488C31.2837 8.93133 32.2593 11.2865 32.2593 13.7422V23.0014C32.2593 25.4571 31.2837 27.8123 29.5473 29.5487C27.8108 31.2852 25.4557 32.2607 23 32.2607C20.5443 32.2607 18.1892 31.2852 16.4527 29.5487C14.7163 27.8123 13.7407 25.4571 13.7407 23.0014V13.7422C13.7407 11.2865 14.7163 8.93133 16.4527 7.19488C18.1892 5.45844 20.5443 4.48291 23 4.48291Z" fill="white"/>
</svg>
