<svg width="16" height="16" viewBox="0 0 16 16" fill="none" xmlns="http://www.w3.org/2000/svg">
    <g opacity="0.6">
        <path opacity="0.5" d="M7.99992 14.6668C11.6819 14.6668 14.6666 11.6822 14.6666 8.00016C14.6666 4.31816 11.6819 1.3335 7.99992 1.3335C4.31792 1.3335 1.33325 4.31816 1.33325 8.00016C1.33325 9.06683 1.58392 10.0748 2.02859 10.9688C2.14725 11.2062 2.18659 11.4775 2.11792 11.7342L1.72125 13.2182C1.68197 13.365 1.682 13.5196 1.72136 13.6665C1.76071 13.8133 1.838 13.9472 1.94546 14.0548C2.05293 14.1623 2.18678 14.2397 2.3336 14.2791C2.48042 14.3186 2.63503 14.3187 2.78192 14.2795L4.26592 13.8822C4.52351 13.8171 4.79601 13.8486 5.03192 13.9708C5.95389 14.4299 6.97 14.6682 7.99992 14.6668Z" fill="#3770FF"/>
        <path fill-rule="evenodd" clip-rule="evenodd" d="M7.99993 4.5166C7.85407 4.5166 7.71417 4.57455 7.61103 4.67769C7.50788 4.78084 7.44993 4.92073 7.44993 5.0666V10.9333C7.44993 11.0791 7.50788 11.219 7.61103 11.3222C7.71417 11.4253 7.85407 11.4833 7.99993 11.4833C8.1458 11.4833 8.2857 11.4253 8.38884 11.3222C8.49199 11.219 8.54993 11.0791 8.54993 10.9333V5.0666C8.54993 4.92073 8.49199 4.78084 8.38884 4.67769C8.2857 4.57455 8.1458 4.5166 7.99993 4.5166ZM5.0666 5.98327C4.99437 5.98327 4.92285 5.99749 4.85613 6.02513C4.7894 6.05277 4.72876 6.09329 4.67769 6.14436C4.62662 6.19543 4.58611 6.25606 4.55847 6.32279C4.53083 6.38952 4.5166 6.46104 4.5166 6.53327V9.4666C4.5166 9.61247 4.57455 9.75237 4.67769 9.85551C4.78084 9.95866 4.92073 10.0166 5.0666 10.0166C5.21247 10.0166 5.35237 9.95866 5.45551 9.85551C5.55866 9.75237 5.6166 9.61247 5.6166 9.4666V6.53327C5.6166 6.3874 5.55866 6.2475 5.45551 6.14436C5.35237 6.04121 5.21247 5.98327 5.0666 5.98327Z" fill="#3770FF"/>
        <path d="M10.3833 6.5334C10.3833 6.38753 10.4412 6.24763 10.5444 6.14449C10.6475 6.04134 10.7874 5.9834 10.9333 5.9834C11.0792 5.9834 11.2191 6.04134 11.3222 6.14449C11.4254 6.24763 11.4833 6.38753 11.4833 6.5334V9.46673C11.4833 9.6126 11.4254 9.7525 11.3222 9.85564C11.2191 9.95879 11.0792 10.0167 10.9333 10.0167C10.7874 10.0167 10.6475 9.95879 10.5444 9.85564C10.4412 9.7525 10.3833 9.6126 10.3833 9.46673V6.5334Z" fill="#3770FF"/>
    </g>
</svg>
